<?xml version="1.0" encoding="UTF-8"?>
<svg id="Layer_1" data-name="Layer 1" xmlns="http://www.w3.org/2000/svg" viewBox="0 0 296.06 107.54">
  <defs>
    <style>
      .cls-1 {
        fill: #fff;
      }
    </style>
  </defs>
  <g>
    <g>
      <path class="cls-1" d="m127.6,37.22V15.95h50.3c2.05-1.1,3.83-1.79,5.33-3.18,1.5-1.39,2.25-3.02,2.25-4.91s-.75-3.62-2.25-5.03c-1.5-1.41-5.33-2.83-5.33-2.83h-66.25v37.22h15.95Z"/>
      <path class="cls-1" d="m0,0v19.76c1.67,1.94,2.39,3.59,3.82,4.95,1.44,1.36,3.18,2.04,5.24,2.04s3.8-.68,5.24-2.04c1.44-1.36,2.16-3.01,1.64-4.95v-3.81h15.95v26.58h15.95V15.95h10.63v3.97c2.9,1.89,3.65,3.52,5.14,4.91,1.5,1.39,3.27,2.08,5.33,2.08s3.73-.68,5.2-2.04c1.47-1.36,2.2-3.01.28-4.95V0H0Z"/>
      <path class="cls-1" d="m276.87,42.53l18.05-29.02c.76-1.22,1.15-2.48,1.15-3.77,0-1.9-.77-3.53-2.3-4.87-1.53-1.34-3.32-2.02-5.38-2.02-2.71,0-4.8,1.16-6.27,3.48l-22.55,36.19h17.3Z"/>
      <path class="cls-1" d="m240.21,42.53h17.5l-22.9-36.32c-1.35-2.23-3.45-3.35-6.32-3.35-1.93,0-3.63.68-5.09,2.04-1.46,1.36-2.2,2.93-2.2,4.7,0,1.44.53,3.02,1.59,4.73l17.42,28.2Z"/>
    </g>
    <g>
      <path class="cls-1" d="m178.48,91.59h-50.88v-26.58h-15.95v42.53h66.66c2.05-.7,3.83-1.38,5.33-2.74,1.5-1.36,2.25-3.01,2.25-4.95s-.73-3.59-2.2-4.95c-1.47-1.36-5.2-3.31-5.2-3.31Z"/>
      <path class="cls-1" d="m31.9,65.01v32.28c0,1.94.78,3.59,2.35,4.95,1.56,1.36,3.47,2.04,5.72,2.04,2.13,0,3.97-.68,5.54-2.04,1.56-1.36,2.35-3.01,2.35-4.95v-32.28h-15.95Z"/>
      <path class="cls-1" d="m240.25,65.01l-17.73,28.48c-.88,1.39-1.32,2.75-1.32,4.08,0,1.72.75,3.3,2.24,4.74,1.5,1.44,3.3,2.16,5.41,2.16,2.82,0,4.9-1.11,6.25-3.33l22.47-36.13h-17.33Z"/>
      <path class="cls-1" d="m277.11,65.01h-17.23l22.33,36.15c1.41,2.22,3.56,3.32,6.43,3.32,2.06,0,3.81-.66,5.24-1.98,1.44-1.32,2.16-2.97,2.16-4.95,0-1.26-.35-2.45-1.06-3.56l-17.88-28.99Z"/>
    </g>
  </g>
  <path class="cls-1" d="m111.65,45.09h60.32c6.39,0,11.58,5.19,11.58,11.58h-60.32c-6.39,0-11.58-5.19-11.58-11.58h0Z"/>
</svg>